<svg xmlns="http://www.w3.org/2000/svg" viewBox="0 0 229.01320280282448 296.1980939318708" width="687.0396084084734" height="888.5942817956125"><g stroke-linecap="round"><g transform="translate(82.6851616549551 286.0792219600216) rotate(0 -36.34258082747755 -91.7554832064477)" fill-rule="evenodd"><path d="M0 0 L-49.15 0.12 L-49.15 -134.89 L-72.69 -134.71 L-0.19 -183.63 L0 0" stroke="none" stroke-width="0" fill="#1e1e1e" fill-rule="evenodd"></path><path d="M0 0 C-11.66 0.03, -23.31 0.06, -49.15 0.12 M0 0 C-17.4 0.04, -34.81 0.08, -49.15 0.12 M-49.15 0.12 C-49.15 -50.58, -49.15 -101.29, -49.15 -134.89 M-49.15 0.12 C-49.15 -46.57, -49.15 -93.27, -49.15 -134.89 M-49.15 -134.89 C-56.05 -134.84, -62.94 -134.78, -72.69 -134.71 M-49.15 -134.89 C-57.41 -134.83, -65.68 -134.76, -72.69 -134.71 M-72.69 -134.71 C-56.31 -145.76, -39.94 -156.8, -0.19 -183.63 M-72.69 -134.71 C-55.97 -145.98, -39.26 -157.26, -0.19 -183.63 M-0.19 -183.63 C-0.13 -128.55, -0.08 -73.47, 0 0 M-0.19 -183.63 C-0.14 -135.25, -0.09 -86.88, 0 0 M0 0 C0 0, 0 0, 0 0 M0 0 C0 0, 0 0, 0 0" stroke="#1e1e1e" stroke-width="4" fill="none"></path></g></g><mask></mask><g stroke-linecap="round"><g transform="translate(150.8009064051483 286.1980939318708) rotate(0 -24.45832557767075 -115.009342271133)" fill-rule="evenodd"><path d="M0 0 L-49.05 -0.06 L-48.75 -196.94 L0.13 -230.02 L0 0" stroke="none" stroke-width="0" fill="#1e1e1e" fill-rule="evenodd"></path><path d="M0 0 C-10.56 -0.01, -21.12 -0.03, -49.05 -0.06 M0 0 C-10.59 -0.01, -21.18 -0.03, -49.05 -0.06 M-49.05 -0.06 C-48.95 -65.94, -48.85 -131.82, -48.75 -196.94 M-49.05 -0.06 C-48.99 -39.7, -48.93 -79.34, -48.75 -196.94 M-48.75 -196.94 C-29.25 -210.14, -9.75 -223.33, 0.13 -230.02 M-48.75 -196.94 C-30.65 -209.19, -12.55 -221.44, 0.13 -230.02 M0.13 -230.02 C0.08 -143.12, 0.03 -56.23, 0 0 M0.13 -230.02 C0.08 -146, 0.04 -61.99, 0 0 M0 0 C0 0, 0 0, 0 0 M0 0 C0 0, 0 0, 0 0" stroke="#1e1e1e" stroke-width="4" fill="none"></path></g></g><mask></mask><g stroke-linecap="round"><g transform="translate(219.01320280282448 286.1980939318708) rotate(0 -24.506601401412226 -138.0990469659354)" fill-rule="evenodd"><path d="M0 0 L-49.01 -0.14 L-48.88 -243.14 L-0.06 -276.2 L0 0" stroke="none" stroke-width="0" fill="#1e1e1e" fill-rule="evenodd"></path><path d="M0 0 C-15.54 -0.04, -31.07 -0.09, -49.01 -0.14 M0 0 C-10.94 -0.03, -21.87 -0.06, -49.01 -0.14 M-49.01 -0.14 C-48.97 -71.12, -48.93 -142.11, -48.88 -243.14 M-49.01 -0.14 C-48.96 -92.16, -48.91 -184.18, -48.88 -243.14 M-48.88 -243.14 C-35.02 -252.52, -21.17 -261.9, -0.06 -276.2 M-48.88 -243.14 C-37.1 -251.12, -25.33 -259.09, -0.06 -276.2 M-0.06 -276.2 C-0.04 -186.14, -0.02 -96.09, 0 0 M-0.06 -276.2 C-0.04 -219.8, -0.03 -163.41, 0 0 M0 0 C0 0, 0 0, 0 0 M0 0 C0 0, 0 0, 0 0" stroke="#1e1e1e" stroke-width="4" fill="none"></path></g></g><mask></mask></svg>
